<?xml version="1.0" encoding="UTF-8"?>
<svg version="1.1" xmlns="http://www.w3.org/2000/svg" width="28" height="28">
<path d="M0 0 C3.76451257 0.62741876 4.7351698 1.45419387 7 4.5 C10.61521039 10.69750352 10.31248986 16.4516177 10 23.5 C8.68 23.5 7.36 23.5 6 23.5 C6 25.15 6 26.8 6 28.5 C2.04 28.5 -1.92 28.5 -6 28.5 C-6 26.85 -6 25.2 -6 23.5 C-7.32 23.5 -8.64 23.5 -10 23.5 C-10.37753088 14.98458128 -10.39507253 9.0657872 -5.1875 2.0625 C-3 0.5 -3 0.5 0 0 Z M-2 4.5 C-2.33 5.49 -2.66 6.48 -3 7.5 C-1.02 7.5 0.96 7.5 3 7.5 C2.67 6.51 2.34 5.52 2 4.5 C0.68 4.5 -0.64 4.5 -2 4.5 Z M-2 14.5 C-2 15.82 -2 17.14 -2 18.5 C-0.68 18.5 0.64 18.5 2 18.5 C2 17.18 2 15.86 2 14.5 C0.68 14.5 -0.64 14.5 -2 14.5 Z " fill="#FFFFFF" transform="translate(14,-0.5)"/>
</svg>
