<?xml version="1.0" encoding="UTF-8"?>
<svg version="1.1" xmlns="http://www.w3.org/2000/svg" width="35" height="35">
<path d="M0 0 C2.80524759 1.24149376 4.90062697 2.96492385 7.26171875 4.91796875 C8.14214844 5.63984375 9.02257812 6.36171875 9.9296875 7.10546875 C11.00373024 8.01322072 12.07983918 8.92358918 13.07421875 9.91796875 C13.16091307 11.40668735 13.18125369 12.89941375 13.171875 14.390625 C13.16865234 15.28974609 13.16542969 16.18886719 13.16210938 17.11523438 C13.15373047 18.06076172 13.14535156 19.00628906 13.13671875 19.98046875 C13.13220703 20.92986328 13.12769531 21.87925781 13.12304688 22.85742188 C13.11122003 25.21096406 13.09328396 27.56447407 13.07421875 29.91796875 C9.44421875 29.91796875 5.81421875 29.91796875 2.07421875 29.91796875 C1.74421875 26.94796875 1.41421875 23.97796875 1.07421875 20.91796875 C0.08421875 20.91796875 -0.90578125 20.91796875 -1.92578125 20.91796875 C-2.25578125 23.88796875 -2.58578125 26.85796875 -2.92578125 29.91796875 C-6.55578125 29.91796875 -10.18578125 29.91796875 -13.92578125 29.91796875 C-14.03374431 26.66708095 -14.1130742 23.41977696 -14.17578125 20.16796875 C-14.20929687 19.24757813 -14.2428125 18.3271875 -14.27734375 17.37890625 C-14.37647048 10.53916209 -14.37647048 10.53916209 -12.16015625 7.484375 C-11.4228125 6.96746094 -10.68546875 6.45054688 -9.92578125 5.91796875 C-9.26578125 5.34433594 -8.60578125 4.77070312 -7.92578125 4.1796875 C-7.26578125 3.66019531 -6.60578125 3.14070312 -5.92578125 2.60546875 C-5.26578125 2.07308594 -4.60578125 1.54070312 -3.92578125 0.9921875 C-1.92578125 -0.08203125 -1.92578125 -0.08203125 0 0 Z " fill="#DA7300" transform="translate(17.92578125,2.08203125)"/>
</svg>
