<?xml version="1.0" encoding="UTF-8"?>
<svg version="1.1" xmlns="http://www.w3.org/2000/svg" width="28" height="28">
<path d="M0 0 C2.3992664 2.46781687 3.4093099 3.90378258 4.1875 7.25 C3.99916661 12.52333506 2.98994272 15.55318069 -0.8125 19.25 C-4.97670421 21.72601332 -8.18115432 21.40783642 -12.8125 20.25 C-15.76742969 18.41137708 -17.41262663 16.92251431 -19.1875 13.9375 C-20.29823543 9.16133764 -19.64367971 5.58582453 -17.0625 1.4375 C-11.84296363 -3.63704925 -6.20806408 -3.86279543 0 0 Z M-14.8125 3.25 C-16.74113839 5.79229606 -16.82152291 7.03345018 -16.6875 10.25 C-15.66336454 13.76132158 -14.75798102 15.10059493 -11.8125 17.25 C-8.21869396 18.39695938 -6.54503748 18.566323 -3.0625 17.0625 C-0.6755936 15.13971429 0.34933001 14.18359496 1.1875 11.25 C1.04063845 7.72532271 0.58698011 5.7974357 -1.5 2.9375 C-6.32878795 -0.58621013 -10.19236049 -0.47177905 -14.8125 3.25 Z " fill="#FFFFFF" transform="translate(21.8125,4.75)"/>
<path d="M0 0 C1.875 1.125 1.875 1.125 3 3 C3.39365568 6.14924548 3.52854531 8.11909116 1.875 10.875 C-0.88090884 12.52854531 -2.85075452 12.39365568 -6 12 C-7.875 10.875 -7.875 10.875 -9 9 C-9.39365568 5.85075452 -9.52854531 3.88090884 -7.875 1.125 C-5.11909116 -0.52854531 -3.14924548 -0.39365568 0 0 Z " fill="#FFFFFF" transform="translate(17,8)"/>
</svg>
