<?xml version="1.0" encoding="UTF-8"?>
<svg version="1.1" xmlns="http://www.w3.org/2000/svg" width="28" height="28">
<path d="M0 0 C2.82424288 2.19022918 4.41508603 3.83017207 6 7 C6.07173806 9.55387492 6.09287732 12.07276761 6.0625 14.625 C6.041875 17.05875 6.02125 19.4925 6 22 C-1.26 22 -8.52 22 -16 22 C-16.061875 19.628125 -16.12375 17.25625 -16.1875 14.8125 C-16.21481201 14.07491455 -16.24212402 13.3373291 -16.27026367 12.57739258 C-16.32573392 8.16064827 -15.72835006 5.47880533 -13 2 C-8.7741215 -0.81725233 -4.96375312 -0.79958384 0 0 Z M-12 4 C-14.49118953 7.7367843 -14.2065226 9.74451819 -14.125 14.1875 C-14.08375 16.435625 -14.0425 18.68375 -14 21 C-8.06 21 -2.12 21 4 21 C4.86002886 11.86011159 4.86002886 11.86011159 1.8125 3.6875 C-3.73509046 0.35894572 -6.44396562 0.54291194 -12 4 Z " fill="#FFFFFF" transform="translate(19,3)"/>
<path d="M0 0 C0.66 0 1.32 0 2 0 C2.33 0.99 2.66 1.98 3 3 C3.66 3 4.32 3 5 3 C4.67 4.32 4.34 5.64 4 7 C4.99 7 5.98 7 7 7 C7 7.66 7 8.32 7 9 C6.34 9 5.68 9 5 9 C5.66 10.32 6.32 11.64 7 13 C5.54119891 12.85892253 4.08296449 12.71197585 2.625 12.5625 C1.40683594 12.44068359 1.40683594 12.44068359 0.1640625 12.31640625 C-2 12 -2 12 -4 11 C-4 9.68 -4 8.36 -4 7 C-3.34 7 -2.68 7 -2 7 C-2.66 5.35 -3.32 3.7 -4 2 C-3.01 2.33 -2.02 2.66 -1 3 C-0.67 2.01 -0.34 1.02 0 0 Z M0 5 C-0.33 6.32 -0.66 7.64 -1 9 C0.32 9 1.64 9 3 9 C2.67 7.68 2.34 6.36 2 5 C1.34 5 0.68 5 0 5 Z " fill="#FFFFFF" transform="translate(13,8)"/>
<path d="M0 0 C0.66 0 1.32 0 2 0 C1.67 0.66 1.34 1.32 1 2 C0.67 1.34 0.34 0.68 0 0 Z " fill="#FFFFFF" transform="translate(18,9)"/>
</svg>
