<?xml version="1.0" encoding="UTF-8"?>
<svg version="1.1" xmlns="http://www.w3.org/2000/svg" width="28" height="28">
<path d="M0 0 C2.5 0.125 2.5 0.125 5 1 C7.66181082 4.2955753 7.15640774 7.93339881 7 12 C6.34 12 5.68 12 5 12 C4.34 9.36 3.68 6.72 3 4 C2.34 4 1.68 4 1 4 C-0.16698437 7.50095311 -0.13268287 10.3122232 -0.125 14 C-0.12757812 15.2375 -0.13015625 16.475 -0.1328125 17.75 C-0.14991302 21.01230773 -0.14991302 21.01230773 1 24 C1.66 24 2.32 24 3 24 C3.66 21.36 4.32 18.72 5 16 C5.66 16 6.32 16 7 16 C7.2954439 21.02254631 6.98514628 23.89542386 4 28 C1.625 27.75 1.625 27.75 -1 27 C-5.31837671 20.19025211 -4.08784629 11.76574277 -2.66796875 4.25 C-2 2 -2 2 0 0 Z " fill="#FFFFFF" transform="translate(12,0)"/>
<path d="M0 0 C1.65 1.32 3.3 2.64 5 4 C3.63016497 7.16115776 3.0109362 7.9927092 0 10 C0 9.01 0 8.02 0 7 C-3.3 6.67 -6.6 6.34 -10 6 C-10 5.34 -10 4.68 -10 4 C-6.7 3.67 -3.4 3.34 0 3 C0 2.01 0 1.02 0 0 Z " fill="#FFFFFF" transform="translate(23,9)"/>
<path d="M0 0 C1.98 0 3.96 0 6 0 C6 0.66 6 1.32 6 2 C4.02 2 2.04 2 0 2 C0 1.34 0 0.68 0 0 Z " fill="#FFFFFF" transform="translate(0,13)"/>
</svg>
