<?xml version="1.0" encoding="UTF-8"?>
<svg version="1.1" xmlns="http://www.w3.org/2000/svg" width="29" height="29">
<path d="M0 0 C3.51790906 -0.07035818 6.77666722 -0.03865375 10.25 0.5625 C13.08021919 1.22956735 13.08021919 1.22956735 16 0 C18.33299825 -0.03954234 20.66708189 -0.04401732 23 0 C23 0.66 23 1.32 23 2 C23.66 2 24.32 2 25 2 C25 8.93 25 15.86 25 23 C15.11986115 26.05813821 7.82986533 26.27662178 -2 23 C-2 16.07 -2 9.14 -2 2 C-1.34 2 -0.68 2 0 2 C0 1.34 0 0.68 0 0 Z M2 2 C2 7.61 2 13.22 2 19 C4.64 19.33 7.28 19.66 10 20 C10 14.72 10 9.44 10 4 C5.43328912 1.81430466 5.43328912 1.81430466 2 2 Z M13 4 C13 9.28 13 14.56 13 20 C16.96 19.505 16.96 19.505 21 19 C21 13.39 21 7.78 21 2 C17.56671088 1.81430466 17.56671088 1.81430466 13 4 Z " fill="#FFFFFF" transform="translate(3,2)"/>
</svg>
