<?xml version="1.0" encoding="UTF-8"?>
<svg version="1.1" xmlns="http://www.w3.org/2000/svg" width="28" height="28">
<path d="M0 0 C0.99 0 1.98 0 3 0 C3.335939 1.4577353 3.66866624 2.91621106 4 4.375 C4.185625 5.18710938 4.37125 5.99921875 4.5625 6.8359375 C5 9 5 9 5 11 C5.66 11 6.32 11 7 11 C7.06058594 10.37351562 7.12117187 9.74703125 7.18359375 9.1015625 C7.26738281 8.28429688 7.35117188 7.46703125 7.4375 6.625 C7.51871094 5.81289062 7.59992187 5.00078125 7.68359375 4.1640625 C8 2 8 2 9 0 C10.32 0.33 11.64 0.66 13 1 C13.33 4.3 13.66 7.6 14 11 C15.98 11 17.96 11 20 11 C20 11.66 20 12.32 20 13 C19.34 13 18.68 13 18 13 C18 14.98 18 16.96 18 19 C16.02 19.99 16.02 19.99 14 21 C12.23537317 17.91190305 12 16.76687864 12 13 C11.34 13 10.68 13 10 13 C10 12.34 10 11.68 10 11 C10.66 11 11.32 11 12 11 C11.67 9.35 11.34 7.7 11 6 C9.18638022 9.62723956 9.58908679 13.93121957 9.37890625 17.93359375 C9 21 9 21 7 24 C6.01 23.67 5.02 23.34 4 23 C2.39274365 19.78548731 2.94251815 16.56387464 3 13 C2.01 13 1.02 13 0 13 C-0.33 15.31 -0.66 17.62 -1 20 C-2.32 20 -3.64 20 -5 20 C-6 19 -6 19 -6.0625 15.9375 C-6.041875 14.968125 -6.02125 13.99875 -6 13 C-6.66 13 -7.32 13 -8 13 C-8 12.34 -8 11.68 -8 11 C-6.02 11 -4.04 11 -2 11 C-1.93941406 10.28972656 -1.87882813 9.57945313 -1.81640625 8.84765625 C-1.73261719 7.92855469 -1.64882812 7.00945313 -1.5625 6.0625 C-1.48128906 5.14597656 -1.40007813 4.22945313 -1.31640625 3.28515625 C-1 1 -1 1 0 0 Z M1 3 C0.67 5.64 0.34 8.28 0 11 C0.99 11 1.98 11 3 11 C2.67 8.36 2.34 5.72 2 3 C1.67 3 1.34 3 1 3 Z M-5 13 C-4.67 14.65 -4.34 16.3 -4 18 C-3.34 17.67 -2.68 17.34 -2 17 C-2 15.68 -2 14.36 -2 13 C-2.99 13 -3.98 13 -5 13 Z M5 13 C5 15.31 5 17.62 5 20 C5.66 20 6.32 20 7 20 C7 17.69 7 15.38 7 13 C6.34 13 5.68 13 5 13 Z M14 13 C14.33 14.65 14.66 16.3 15 18 C15.33 18 15.66 18 16 18 C16 16.35 16 14.7 16 13 C15.34 13 14.68 13 14 13 Z " fill="#FFFFFF" transform="translate(8,2)"/>
</svg>
